<svg width="1200" height="800" viewBox="0 0 1200 800" fill="none" xmlns="http://www.w3.org/2000/svg">
  <defs>
    <linearGradient id="bg" x1="0" y1="0" x2="1200" y2="800" gradientUnits="userSpaceOnUse">
      <stop offset="0" stop-color="#0F172A"/>
      <stop offset="0.55" stop-color="#111827"/>
      <stop offset="1" stop-color="#1E1B4B"/>
    </linearGradient>
    <linearGradient id="glow" x1="180" y1="120" x2="920" y2="620" gradientUnits="userSpaceOnUse">
      <stop offset="0" stop-color="#8B5CF6" stop-opacity="0.55"/>
      <stop offset="1" stop-color="#22D3EE" stop-opacity="0.35"/>
    </linearGradient>
  </defs>

  <rect width="1200" height="800" rx="36" fill="url(#bg)"/>
  <circle cx="990" cy="120" r="210" fill="#8B5CF6" fill-opacity="0.15"/>
  <circle cx="220" cy="700" r="260" fill="#22D3EE" fill-opacity="0.1"/>
  <rect x="90" y="88" width="180" height="34" rx="17" fill="#FFFFFF" fill-opacity="0.08"/>
  <text x="114" y="111" fill="#CBD5E1" font-size="16" font-family="Arial, sans-serif" letter-spacing="2.5">PROJECT PREVIEW</text>

  <rect x="90" y="170" width="1020" height="500" rx="28" fill="#FFFFFF" fill-opacity="0.04" stroke="#FFFFFF" stroke-opacity="0.12"/>
  <rect x="128" y="210" width="460" height="38" rx="12" fill="#FFFFFF" fill-opacity="0.13"/>
  <rect x="128" y="268" width="620" height="18" rx="9" fill="#FFFFFF" fill-opacity="0.12"/>
  <rect x="128" y="300" width="560" height="18" rx="9" fill="#FFFFFF" fill-opacity="0.1"/>

  <rect x="128" y="372" width="220" height="120" rx="18" fill="#FFFFFF" fill-opacity="0.06"/>
  <rect x="370" y="372" width="220" height="120" rx="18" fill="#FFFFFF" fill-opacity="0.06"/>
  <rect x="612" y="372" width="220" height="120" rx="18" fill="#FFFFFF" fill-opacity="0.06"/>

  <rect x="860" y="210" width="210" height="340" rx="20" fill="url(#glow)" fill-opacity="0.6"/>
  <rect x="860" y="570" width="210" height="56" rx="14" fill="#FFFFFF" fill-opacity="0.12"/>
</svg>
